  <svg
    width="22"
    height="20"
    viewBox="0 0 22 20"
    fill="none"
    xmlns="http://www.w3.org/2000/svg"
  >
    <path
      d="M8.46933 7.64329L7.7691 1.76852L7.76724 1.69493C7.76724 0.806308 8.48761 0.0859375 9.37622 0.0859375C10.179 0.0859375 10.9219 0.505598 11.3546 1.22035L11.4409 1.38102L14.3858 7.47005L18.3429 7.35423C19.7766 7.31213 20.9729 8.4402 21.0152 9.8848L21.0161 9.9501C21.0161 11.3844 19.8533 12.5472 18.397 12.5469L14.4328 12.4308L11.441 18.6191C11.0581 19.4111 10.2559 19.9142 9.37622 19.9142C8.48761 19.9142 7.76724 19.1939 7.76757 18.2829L7.77408 18.1649L8.48095 12.2567L6.34887 12.1944L6.07997 12.9301C5.79945 13.6974 5.06948 14.2078 4.2525 14.2078C3.37656 14.2078 2.66648 13.4977 2.66648 12.6214L2.66684 11.8618L2.5118 11.8295C1.62181 11.6438 0.984131 10.8592 0.984131 9.9501C0.984131 9.0408 1.62228 8.2563 2.51235 8.0712L2.66684 8.0391L2.66648 7.27836C2.66648 6.47633 3.2646 5.80351 4.10113 5.7003L4.2525 5.69234C4.99744 5.69234 5.67537 6.11751 6.01696 6.81938L6.07978 6.96952L6.34941 7.70542L8.46933 7.64329ZM9.37622 1.58594C9.31602 1.58594 9.26722 1.63473 9.26692 1.67256L10.1533 9.0946L5.31285 9.2365L4.68544 7.52118L4.65289 7.44211C4.57853 7.28982 4.4231 7.19234 4.29899 7.1909L4.24076 7.19305C4.19917 7.19826 4.16648 7.23502 4.16648 7.278L4.16742 9.2588L2.81788 9.5398C2.62348 9.5802 2.48413 9.7515 2.48413 9.9501C2.48413 10.1489 2.62362 10.3206 2.81791 10.3611L4.16742 10.642L4.16648 12.6217C4.16648 12.6693 4.20499 12.7078 4.2525 12.7078C4.43966 12.7078 4.60689 12.5908 4.67114 12.4151L5.31139 10.6635L10.1653 10.8052L9.26842 18.2764L9.26722 18.3053C9.26722 18.3655 9.31602 18.4142 9.37622 18.4142C9.68052 18.4142 9.95802 18.2402 10.0905 17.9662L13.5054 10.903L18.419 11.0472C19.0249 11.0472 19.5162 10.556 19.5162 9.9611L19.5156 9.9178C19.4979 9.3123 18.9925 8.8358 18.3869 8.8536L13.4584 8.9978L10.1067 2.06567L10.0543 1.96747C9.91102 1.73117 9.65392 1.58594 9.37622 1.58594Z"
      fill="white"
    />
  </svg>