  <svg
    width="20"
    height="17"
    viewBox="0 0 20 17"
    fill="none"
    xmlns="http://www.w3.org/2000/svg"
  >
    <path
      d="M4.75 0H15.25C16.7125 0 17.9084 1.1417 17.995 2.58248L18 2.75L18.0006 6.1037C19.0968 6.414 19.9147 7.3872 19.9937 8.5628L20 8.75V16.25C20 16.6642 19.6642 17 19.25 17C18.8703 17 18.5565 16.7178 18.5068 16.3518L18.5 16.25V14H1.5V16.25C1.5 16.6297 1.21785 16.9435 0.85177 16.9932L0.75 17C0.3703 17 0.05651 16.7178 0.00685 16.3518L0 16.25V8.75C0 7.4911 0.84596 6.4297 2.00044 6.1034L2 2.75C2 1.28747 3.1417 0.0916001 4.58248 0.00502014L4.75 0ZM17.25 7.5H2.75C2.10279 7.5 1.57047 7.9919 1.50645 8.6222L1.5 8.75V12.5H18.5V8.75C18.5 8.1028 18.0081 7.5705 17.3778 7.5065L17.25 7.5ZM15.25 1.5H4.75C4.10279 1.5 3.57047 1.99187 3.50645 2.62219L3.5 2.75V6H5C5 5.44772 5.44772 5 6 5H8C8.5128 5 8.9355 5.38604 8.9933 5.88338L9 6H11C11 5.44772 11.4477 5 12 5H14C14.5128 5 14.9355 5.38604 14.9933 5.88338L15 6H16.5V2.75C16.5 2.10279 16.0081 1.57047 15.3778 1.50645L15.25 1.5Z"
      fill="white"
    />
  </svg>