  <svg
    width="28"
    height="24"
    viewBox="0 0 28 24"
    fill="none"
    xmlns="http://www.w3.org/2000/svg"
  >
    <path
      d="M13.7402 15.8049L17.8555 19.9024L13.7402 24L12.5098 22.7748L14.5195 20.7737H14C13.0339 20.7737 12.0723 20.7374 11.1152 20.6648C10.1582 20.5922 9.19661 20.4606 8.23047 20.27C7.78385 20.1883 7.27344 20.0749 6.69922 19.9297C6.125 19.7845 5.52799 19.5984 4.9082 19.3715C4.28841 19.1446 3.69141 18.8815 3.11719 18.582C2.54297 18.2825 2.01888 17.9421 1.54492 17.561C1.07096 17.1798 0.697266 16.7487 0.423828 16.2677C0.150391 15.7867 0.00911458 15.2558 0 14.675C0 14.3664 0.0455729 14.0669 0.136719 13.7765C0.227865 13.4861 0.355469 13.2138 0.519531 12.9597C0.683594 12.7056 0.870443 12.4697 1.08008 12.2518C1.28971 12.034 1.51302 11.8298 1.75 11.6393V14.675C1.75 15.0108 1.85482 15.3148 2.06445 15.5871C2.27409 15.8593 2.50195 16.0998 2.74805 16.3086C3.17643 16.6625 3.67773 16.9756 4.25195 17.2479C4.82617 17.5201 5.44141 17.7561 6.09766 17.9558C6.75391 18.1554 7.43294 18.3279 8.13477 18.4731C8.83659 18.6183 9.5293 18.7272 10.2129 18.7998C10.8965 18.8724 11.5664 18.9314 12.2227 18.9767C12.8789 19.0221 13.4714 19.0403 14 19.0312H14.5059L12.5098 17.0301L13.7402 15.8049ZM26.25 11.6393C26.487 11.8298 26.7103 12.034 26.9199 12.2518C27.1296 12.4697 27.3118 12.7102 27.4668 12.9733C27.6217 13.2365 27.7493 13.5043 27.8496 13.7765C27.9499 14.0488 28 14.3483 28 14.675C28 15.2286 27.8724 15.7368 27.6172 16.1997C27.362 16.6625 27.0156 17.08 26.5781 17.4521C26.1406 17.8242 25.653 18.16 25.1152 18.4594C24.5775 18.7589 24.0215 19.0176 23.4473 19.2354C22.873 19.4532 22.3125 19.6347 21.7656 19.7799C21.2188 19.9251 20.7311 20.0476 20.3027 20.1475L19.9473 18.4458C20.2025 18.3914 20.5352 18.3097 20.9453 18.2008C21.3555 18.0919 21.7975 17.9603 22.2715 17.806C22.7454 17.6517 23.2148 17.4657 23.6797 17.2479C24.1445 17.0301 24.5729 16.7896 24.9648 16.5264C25.3568 16.2632 25.6667 15.9773 25.8945 15.6687C26.1224 15.3602 26.2409 15.0289 26.25 14.675V11.6393ZM8.75 10.768C8.75 11.2581 8.65885 11.6892 8.47656 12.0613C8.29427 12.4334 8.05273 12.751 7.75195 13.0142C7.45117 13.2774 7.09115 13.4725 6.67188 13.5995C6.2526 13.7266 5.81055 13.7947 5.3457 13.8037C4.96289 13.8037 4.58008 13.7674 4.19727 13.6948C3.81445 13.6222 3.45898 13.477 3.13086 13.2592V12.0204C3.79622 12.5559 4.54818 12.8236 5.38672 12.8236C5.6875 12.8236 5.97005 12.7828 6.23438 12.7011C6.4987 12.6194 6.73568 12.4969 6.94531 12.3335C7.15495 12.1702 7.31901 11.9705 7.4375 11.7345C7.55599 11.4986 7.61523 11.2127 7.61523 10.8769C7.61523 10.3959 7.51497 10.0238 7.31445 9.76064C7.11393 9.49745 6.85417 9.29779 6.53516 9.16166C6.21615 9.02553 5.86068 8.94838 5.46875 8.93023C5.07682 8.91208 4.69857 8.89847 4.33398 8.88939H4.10156V7.90925H4.2793C4.62565 7.90925 4.97656 7.90017 5.33203 7.88202C5.6875 7.86387 6.00651 7.79127 6.28906 7.66421C6.57161 7.53715 6.80404 7.35111 6.98633 7.10607C7.16862 6.86103 7.25977 6.50709 7.25977 6.04424C7.25977 5.44526 7.10482 5.00964 6.79492 4.73738C6.48503 4.46512 6.03385 4.32898 5.44141 4.32898C5.08594 4.32898 4.74414 4.39251 4.41602 4.51957C4.08789 4.64663 3.78711 4.8236 3.51367 5.05048V3.92059C3.8418 3.71185 4.19271 3.56665 4.56641 3.48497C4.9401 3.40329 5.32292 3.35791 5.71484 3.34884C6.07943 3.34884 6.42122 3.39875 6.74023 3.49858C7.05924 3.59841 7.34635 3.75269 7.60156 3.96143C7.85677 4.17016 8.04818 4.42428 8.17578 4.72377C8.30339 5.02326 8.3763 5.36812 8.39453 5.75837C8.39453 7.08338 7.75195 7.95009 6.4668 8.35848C6.79492 8.38571 7.0957 8.46285 7.36914 8.5899C7.64258 8.71696 7.88411 8.88939 8.09375 9.1072C8.30339 9.32501 8.46289 9.57005 8.57227 9.84231C8.68164 10.1146 8.74089 10.4231 8.75 10.768ZM14.0273 13.8037C13.4076 13.8037 12.8971 13.6585 12.4961 13.3681C12.0951 13.0777 11.7806 12.7011 11.5527 12.2382C11.3249 11.7754 11.1608 11.2762 11.0605 10.7408C10.9603 10.2053 10.9147 9.68349 10.9238 9.17527C10.9238 8.76688 10.9512 8.34033 11.0059 7.89563C11.0605 7.45094 11.1471 7.01532 11.2656 6.58877C11.3841 6.16222 11.5482 5.74929 11.7578 5.34997C11.9674 4.95065 12.2135 4.61032 12.4961 4.32898C12.7786 4.04765 13.1204 3.81168 13.5215 3.6211C13.9225 3.43052 14.3737 3.33976 14.875 3.34884C15.1484 3.34884 15.4219 3.36699 15.6953 3.40329C15.9688 3.43959 16.2331 3.51673 16.4883 3.63471V4.73738C16.2422 4.61032 15.987 4.51049 15.7227 4.43789C15.4583 4.36529 15.1849 4.32898 14.9023 4.32898C14.3646 4.32898 13.918 4.46058 13.5625 4.72377C13.207 4.98695 12.9199 5.32275 12.7012 5.73114C12.4824 6.13953 12.3275 6.58423 12.2363 7.06523C12.1452 7.54623 12.0996 8.00908 12.0996 8.45377V8.56268C12.3366 8.12706 12.6419 7.80942 13.0156 7.60976C13.3893 7.4101 13.8223 7.31027 14.3145 7.31027C14.7702 7.31027 15.1712 7.39195 15.5176 7.5553C15.8639 7.71866 16.151 7.94101 16.3789 8.22235C16.6068 8.50369 16.7799 8.83494 16.8984 9.21611C17.0169 9.59728 17.0762 9.9966 17.0762 10.4141C17.0762 10.8678 17.0078 11.2989 16.8711 11.7073C16.7344 12.1157 16.5384 12.4742 16.2832 12.7828C16.028 13.0913 15.709 13.3364 15.3262 13.5179C14.9434 13.6994 14.5104 13.7947 14.0273 13.8037ZM14.0547 8.2768C13.7721 8.2768 13.5124 8.33125 13.2754 8.44016C13.0384 8.54906 12.8379 8.69881 12.6738 8.88939C12.5098 9.07998 12.3776 9.29779 12.2773 9.54282C12.1771 9.78786 12.1315 10.0465 12.1406 10.3188C12.1406 10.6092 12.1771 10.8996 12.25 11.19C12.3229 11.4804 12.4414 11.7482 12.6055 11.9932C12.7695 12.2382 12.9746 12.4379 13.2207 12.5922C13.4668 12.7465 13.7539 12.8236 14.082 12.8236C14.3919 12.8236 14.6654 12.7601 14.9023 12.633C15.1393 12.506 15.3307 12.3335 15.4766 12.1157C15.6224 11.8979 15.7363 11.6574 15.8184 11.3942C15.9004 11.131 15.9414 10.8542 15.9414 10.5638C15.9414 10.2643 15.9095 9.97845 15.8457 9.70618C15.7819 9.43392 15.6725 9.18888 15.5176 8.97107C15.3626 8.75326 15.1667 8.58537 14.9297 8.46739C14.6927 8.3494 14.401 8.28588 14.0547 8.2768ZM21.7793 13.8037C21.36 13.8037 20.9954 13.7266 20.6855 13.5723C20.3757 13.418 20.1113 13.2048 19.8926 12.9325C19.6738 12.6602 19.4915 12.3517 19.3457 12.0068C19.1999 11.6619 19.0905 11.3035 19.0176 10.9314C18.9447 10.5593 18.89 10.1872 18.8535 9.81509C18.8171 9.443 18.8034 9.09813 18.8125 8.78049C18.8125 8.42655 18.8262 8.04992 18.8535 7.6506C18.8809 7.25128 18.9355 6.84742 19.0176 6.43902C19.0996 6.03063 19.2135 5.64492 19.3594 5.28191C19.5052 4.91889 19.6921 4.59217 19.9199 4.30176C20.1478 4.01134 20.4349 3.77992 20.7812 3.60749C21.1276 3.43505 21.5286 3.34884 21.9844 3.34884C22.6497 3.34884 23.1784 3.52581 23.5703 3.87975C23.9622 4.23369 24.2585 4.67385 24.459 5.20023C24.6595 5.7266 24.7871 6.28928 24.8418 6.88826C24.8965 7.48724 24.9284 8.0363 24.9375 8.53545C24.9375 8.87124 24.9238 9.23426 24.8965 9.6245C24.8691 10.0147 24.8099 10.4095 24.7188 10.8088C24.6276 11.2082 24.5091 11.5803 24.3633 11.9251C24.2174 12.27 24.026 12.5876 23.7891 12.878C23.5521 13.1685 23.2695 13.3908 22.9414 13.5451C22.6133 13.6994 22.2259 13.7856 21.7793 13.8037ZM21.9297 4.32898C21.6107 4.32898 21.3418 4.40613 21.123 4.56041C20.9043 4.71469 20.7174 4.91889 20.5625 5.173C20.4076 5.42711 20.2891 5.71299 20.207 6.03063C20.125 6.34827 20.0612 6.67045 20.0156 6.99716C19.9701 7.32388 19.9427 7.63698 19.9336 7.93647C19.9245 8.23596 19.9199 8.49915 19.9199 8.72604C19.9199 8.94385 19.9245 9.19342 19.9336 9.47476C19.9427 9.7561 19.9701 10.051 20.0156 10.3596C20.0612 10.6682 20.125 10.9677 20.207 11.2581C20.2891 11.5485 20.403 11.8117 20.5488 12.0476C20.6947 12.2836 20.877 12.4697 21.0957 12.6058C21.3145 12.7419 21.5788 12.8145 21.8887 12.8236C22.1986 12.8236 22.4583 12.751 22.668 12.6058C22.8776 12.4606 23.0599 12.2655 23.2148 12.0204C23.3698 11.7754 23.4837 11.5077 23.5566 11.2172C23.6296 10.9268 23.6888 10.6183 23.7344 10.2915C23.7799 9.96483 23.8073 9.66534 23.8164 9.39308C23.8255 9.12082 23.8301 8.87124 23.8301 8.64436C23.8301 8.4447 23.8255 8.19966 23.8164 7.90925C23.8073 7.61883 23.7845 7.31027 23.748 6.98355C23.7116 6.65684 23.6523 6.33919 23.5703 6.03063C23.4883 5.72206 23.3789 5.43619 23.2422 5.173C23.1055 4.90981 22.9277 4.70562 22.709 4.56041C22.4902 4.4152 22.2305 4.33806 21.9297 4.32898ZM26.25 3.21271C26.0312 3.21271 25.8262 3.17187 25.6348 3.09019C25.4434 3.00851 25.2702 2.89053 25.1152 2.73625C24.9603 2.58196 24.8464 2.41407 24.7734 2.23256C24.7005 2.05105 24.6549 1.84231 24.6367 1.60635C24.6367 1.38854 24.6777 1.18434 24.7598 0.993761C24.8418 0.803176 24.9603 0.630743 25.1152 0.476461C25.2702 0.322178 25.4388 0.208735 25.6211 0.136132C25.8034 0.0635281 26.013 0.0181509 26.25 0C26.4688 0 26.6738 0.0408395 26.8652 0.122518C27.0566 0.204197 27.2298 0.322178 27.3848 0.476461C27.5397 0.630743 27.6536 0.798639 27.7266 0.980147C27.7995 1.16166 27.8451 1.37039 27.8633 1.60635C27.8633 1.82416 27.8223 2.02836 27.7402 2.21895C27.6582 2.40953 27.5397 2.58196 27.3848 2.73625C27.2298 2.89053 27.0612 3.00397 26.8789 3.07657C26.6966 3.14918 26.487 3.19455 26.25 3.21271ZM26.25 0.694271C25.9948 0.694271 25.7806 0.780488 25.6074 0.952921C25.4342 1.12535 25.3431 1.34317 25.334 1.60635C25.334 1.86047 25.4206 2.07374 25.5938 2.24617C25.7669 2.4186 25.9857 2.50936 26.25 2.51843C26.5052 2.51843 26.7194 2.43222 26.8926 2.25978C27.0658 2.08735 27.1569 1.86954 27.166 1.60635C27.166 1.35224 27.0794 1.13897 26.9062 0.966534C26.7331 0.794101 26.5143 0.703347 26.25 0.694271Z"
      fill="white"
    />
  </svg>