  <svg
    width="20"
    height="19"
    viewBox="0 0 20 19"
    fill="none"
    xmlns="http://www.w3.org/2000/svg"
  >
    <path
      d="M11.9247 0.503906C12.7225 0.503906 13.4607 0.926376 13.8647 1.61428L14.6793 3.00086H16.75C18.5449 3.00086 20 4.45593 20 6.25086V15.7509C20 17.5458 18.5449 19.0009 16.75 19.0009H3.25C1.45507 19.0009 0 17.5458 0 15.7509V6.25086C0 4.45593 1.45507 3.00086 3.25 3.00086H5.33042L6.205 1.57656C6.61425 0.910056 7.34026 0.503906 8.1224 0.503906H11.9247ZM11.9247 2.00391H8.1224C7.89892 2.00391 7.6892 2.10337 7.54793 2.2717L7.48325 2.36146L6.38913 4.14331C6.25271 4.36547 6.01071 4.50086 5.75 4.50086H3.25C2.2835 4.50086 1.5 5.28436 1.5 6.25086V15.7509C1.5 16.7174 2.2835 17.5009 3.25 17.5009H16.75C17.7165 17.5009 18.5 16.7174 18.5 15.7509V6.25086C18.5 5.28436 17.7165 4.50086 16.75 4.50086H14.25C13.9841 4.50086 13.738 4.36003 13.6033 4.13073L12.5714 2.37403C12.4367 2.14473 12.1906 2.00391 11.9247 2.00391ZM10 6.00086C12.4853 6.00086 14.5 8.0156 14.5 10.5009C14.5 12.9861 12.4853 15.0009 10 15.0009C7.51472 15.0009 5.5 12.9861 5.5 10.5009C5.5 8.0156 7.51472 6.00086 10 6.00086ZM10 7.50086C8.3431 7.50086 7 8.844 7 10.5009C7 12.1577 8.3431 13.5009 10 13.5009C11.6569 13.5009 13 12.1577 13 10.5009C13 8.844 11.6569 7.50086 10 7.50086Z"
      fill="white"
    />
  </svg>